<svg xmlns="http://www.w3.org/2000/svg" xmlns:xlink="http://www.w3.org/1999/xlink" width="100" zoomAndPan="magnify" viewBox="0 0 75 74.999997" height="100" preserveAspectRatio="xMidYMid meet" version="1.2"><defs><clipPath id="dc75956c07"><path d="M 22 10.164062 L 51 10.164062 L 51 64.914062 L 22 64.914062 Z M 22 10.164062 "/></clipPath><clipPath id="b92a4bd6f1"><path d="M 7.5 25 L 24 25 L 24 51 L 7.5 51 Z M 7.5 25 "/></clipPath><clipPath id="2e2d109e4c"><path d="M 51 25 L 67.5 25 L 67.5 51 L 51 51 Z M 51 25 "/></clipPath></defs><g id="964f9d492c"><rect x="0" width="75" y="0" height="74.999997" style="fill:#ffffff;fill-opacity:1;stroke:none;"/><rect x="0" width="75" y="0" height="74.999997" style="fill:#2b8eec;fill-opacity:1;stroke:none;"/><g clip-rule="nonzero" clip-path="url(#dc75956c07)"><path style=" stroke:none;fill-rule:nonzero;fill:#ffffff;fill-opacity:1;" d="M 47.855469 11.316406 L 22.199219 62.449219 C 21.789062 63.269531 22.121094 64.265625 22.9375 64.679688 C 23.175781 64.796875 23.429688 64.855469 23.683594 64.855469 C 24.289062 64.855469 24.875 64.519531 25.167969 63.941406 L 50.820312 12.804688 C 51.234375 11.984375 50.902344 10.988281 50.082031 10.574219 C 49.265625 10.164062 48.269531 10.496094 47.855469 11.316406 Z M 47.855469 11.316406 "/></g><g clip-rule="nonzero" clip-path="url(#b92a4bd6f1)"><path style=" stroke:none;fill-rule:nonzero;fill:#ffffff;fill-opacity:1;" d="M 21.570312 50.242188 C 22.035156 50.242188 22.496094 50.046875 22.828125 49.664062 C 23.421875 48.972656 23.34375 47.925781 22.652344 47.324219 L 11.804688 37.980469 L 22.652344 28.628906 C 23.347656 28.035156 23.425781 26.988281 22.824219 26.292969 C 22.230469 25.597656 21.179688 25.519531 20.488281 26.117188 L 8.179688 36.726562 C 7.8125 37.039062 7.605469 37.5 7.605469 37.980469 C 7.605469 38.464844 7.8125 38.925781 8.179688 39.238281 L 20.488281 49.839844 C 20.800781 50.109375 21.183594 50.242188 21.570312 50.242188 Z M 21.570312 50.242188 "/></g><g clip-rule="nonzero" clip-path="url(#2e2d109e4c)"><path style=" stroke:none;fill-rule:nonzero;fill:#ffffff;fill-opacity:1;" d="M 52.105469 49.664062 C 52.4375 50.046875 52.898438 50.242188 53.367188 50.242188 C 53.75 50.242188 54.132812 50.109375 54.445312 49.839844 L 66.753906 39.238281 C 67.117188 38.921875 67.328125 38.464844 67.328125 37.980469 C 67.328125 37.5 67.117188 37.039062 66.753906 36.726562 L 54.449219 26.117188 C 53.75 25.519531 52.703125 25.597656 52.109375 26.292969 C 51.511719 26.988281 51.585938 28.035156 52.28125 28.628906 L 63.128906 37.980469 L 52.28125 47.324219 C 51.585938 47.925781 51.511719 48.972656 52.105469 49.664062 Z M 52.105469 49.664062 "/></g></g></svg>